<?xml version="1.0" standalone="no"?>
<!DOCTYPE svg PUBLIC "-//W3C//DTD SVG 20010904//EN"
 "http://www.w3.org/TR/2001/REC-SVG-20010904/DTD/svg10.dtd">
<svg version="1.0" xmlns="http://www.w3.org/2000/svg"
 width="169.000000pt" height="169.000000pt" viewBox="0 0 169.000000 169.000000"
 preserveAspectRatio="xMidYMid meet">
<metadata>
Created by potrace 1.11, written by Peter Selinger 2001-2013
</metadata>
<g transform="translate(0.000000,169.000000) scale(0.100000,-0.100000)"
fill="#000000" stroke="none">
<path d="M926 1673 c-111 -32 -200 -119 -236 -227 -15 -47 -22 -150 -11 -180
5 -11 11 -32 14 -46 6 -24 4 -25 -36 -23 -53 2 -151 -31 -200 -67 -148 -109
-187 -320 -87 -471 59 -90 154 -145 265 -156 68 -6 73 -10 53 -46 -17 -33 -18
-142 -1 -199 28 -97 98 -181 178 -217 83 -37 97 -40 173 -37 99 3 174 36 241
105 132 136 129 371 -8 499 -66 62 -166 102 -242 97 l-36 -2 9 36 c18 69 20
136 5 194 l-15 57 41 1 c23 0 49 2 57 5 8 2 28 7 45 10 45 11 129 68 164 113
56 71 75 126 76 221 0 74 -4 93 -29 144 -78 158 -254 237 -420 189z"/>
</g>
</svg>
